<svg id="eaeb69e3-b331-4cc9-b8d4-44440acc15c4" xmlns="http://www.w3.org/2000/svg" viewBox="0 0 240 234">
	<g id="ed87168d-a71c-41a9-9d61-c9cb64a8944a">
		<g id="beeb1234-9524-4960-8a6e-2ad5c0e60789">
			<g id="b926f668-40f4-4011-8a26-4c67a3d4b893">
				<g id="b8edb345-67a6-42fb-b410-e7383bf4b9e5">
					<path d="M42.5,0h155A42.464,42.464,0,0,1,240,42.5v149A42.464,42.464,0,0,1,197.5,234H42.5A42.464,42.464,0,0,1,0,191.5V42.5A42.464,42.464,0,0,1,42.5,0Z" fill="#00005b"></path>
				</g>
			</g>
		</g>
		<g id="edc77d7c-6704-4395-a0ae-91a4c7d505d1">
			<g id="feb206b8-802d-4b4a-9c07-fdaa1859b2b8">
				<path d="M57,164.1V61.2c0-.7.3-1.1,1-1.1,1.7,0,3.3,0,5.6-.1,2.4-.1,4.9-.1,7.6-.2s5.6-.1,8.7-.2,6.1-.1,9.1-.1c8.2,0,15,1,20.6,3.1A35.71,35.71,0,0,1,123,70.8a31.84,31.84,0,0,1,7.3,11.4,38.275,38.275,0,0,1,2.3,13q0,12.9-6,21.3a34.26,34.26,0,0,1-16.1,12.2c-6.8,2.5-14.3,3.4-22.5,3.4-2.4,0-4,0-5-.1s-2.4-.1-4.3-.1V164a1.244,1.244,0,0,1-1.1,1.4H58.2C57.4,165.4,57,165,57,164.1ZM78.8,79.4V113c1.4.1,2.7.2,3.9.2H88a37.354,37.354,0,0,0,11.5-1.8,17.2,17.2,0,0,0,8.2-5.3c2.1-2.5,3.1-5.9,3.1-10.3a16.459,16.459,0,0,0-2.3-8.9,14.5,14.5,0,0,0-7-5.7,29.343,29.343,0,0,0-11.8-2c-2.6,0-4.9,0-6.8.1a22.9,22.9,0,0,0-4.1.1Z" fill="#99f"></path>
				<path d="M146.6,85.2h17.5a2.252,2.252,0,0,1,2.1,1.6,10.154,10.154,0,0,1,.6,2.5c.2,1,.4,2.1.5,3.1.1,1.1.2,2.3.2,3.6a37.218,37.218,0,0,1,10.7-8.6,30.992,30.992,0,0,1,15.2-3.9,1.244,1.244,0,0,1,1.4,1.1v19.9c0,.8-.5,1.1-1.6,1.1a43.481,43.481,0,0,0-10.8,1,41.151,41.151,0,0,0-8.4,2.7,15.545,15.545,0,0,0-5.1,3.7v51c0,1-.4,1.4-1.3,1.4H147.9a1.383,1.383,0,0,1-1.6-1.2V108.4c0-2.4,0-4.9-.1-7.5s-.1-5.2-.2-7.8c0-2.3-.2-4.5-.4-6.8a.921.921,0,0,1,.7-1.1c0-.1.2-.1.3,0Z" fill="#99f"></path>
			</g>
		</g>
	</g>
</svg>